<svg version="1.0" xmlns="http://www.w3.org/2000/svg"
 width={`${width}px`} height={`${height}px`} viewBox="0 0 1200.000000 1200.000000"
 preserveAspectRatio="xMidYMid meet">
<metadata>
Created by potrace 1.16, written by Peter Selinger 2001-2019
</metadata>
<g transform="translate(0.000000,1200.000000) scale(0.100000,-0.100000)"
fill="#000000" stroke="none">
<path d="M0 6000 l0 -6000 6000 0 6000 0 0 6000 0 6000 -6000 0 -6000 0 0
-6000z m7382 1798 c0 -403 2 -841 2 -972 l1 -239 -60 -33 c-66 -37 -234 -95
-346 -120 -50 -11 -120 -17 -214 -17 -136 1 -146 2 -338 52 -353 91 -505 88
-707 -14 -59 -30 -152 -91 -211 -137 l-36 -29 109 -307 c59 -169 108 -309 108
-312 0 -7 -229 -85 -234 -79 -8 8 -826 2318 -826 2332 0 39 236 219 398 304
235 123 428 168 707 167 214 -1 257 -11 512 -123 87 -38 190 -79 228 -91 229
-71 509 21 785 259 58 50 108 91 113 91 4 0 8 -330 9 -732z m-5693 -244 c19
-49 39 -92 45 -96 6 -4 52 -8 103 -8 50 0 94 -4 98 -9 3 -6 -31 -40 -75 -77
-53 -45 -79 -73 -76 -83 30 -104 48 -182 43 -188 -4 -3 -44 18 -89 47 -46 29
-87 53 -93 53 -5 0 -47 -24 -93 -53 -46 -29 -86 -50 -89 -46 -5 5 28 149 44
192 2 6 -32 40 -76 75 -44 35 -79 69 -77 74 1 6 45 12 97 15 52 3 99 8 105 12
6 4 26 48 44 98 19 49 39 89 45 87 5 -2 25 -44 44 -93z m900 0 c19 -49 39 -92
45 -96 6 -4 52 -8 103 -8 50 0 94 -4 98 -9 3 -6 -31 -40 -75 -77 -53 -45 -79
-73 -76 -83 30 -104 48 -182 43 -188 -4 -3 -44 18 -89 47 -46 29 -87 53 -93
53 -5 0 -47 -24 -93 -53 -46 -29 -86 -50 -89 -46 -5 5 28 149 44 192 2 6 -32
40 -76 75 -44 35 -79 69 -77 74 1 6 45 12 97 15 52 3 99 8 105 12 6 4 26 48
44 98 19 49 39 89 45 87 5 -2 25 -44 44 -93z m900 0 c19 -49 39 -92 45 -96 6
-4 52 -8 103 -8 50 0 94 -4 98 -9 3 -6 -31 -40 -75 -77 -53 -45 -79 -73 -76
-83 30 -104 48 -182 43 -188 -4 -3 -44 18 -89 47 -46 29 -87 53 -93 53 -5 0
-47 -24 -93 -53 -46 -29 -86 -50 -89 -46 -5 5 28 149 44 192 2 6 -32 40 -76
75 -44 35 -79 69 -77 74 1 6 45 12 97 15 52 3 99 8 105 12 6 4 26 48 44 98 19
49 39 89 45 87 5 -2 25 -44 44 -93z m5100 0 c19 -49 39 -92 45 -96 6 -4 52 -8
103 -8 50 0 94 -4 98 -9 3 -6 -31 -40 -75 -77 -53 -45 -79 -73 -76 -83 30
-104 48 -182 43 -188 -4 -3 -44 18 -89 47 -46 29 -87 53 -93 53 -5 0 -47 -24
-93 -53 -46 -29 -86 -50 -89 -46 -5 5 28 149 44 192 2 6 -32 40 -76 75 -44 35
-79 69 -77 74 1 6 45 12 97 15 52 3 99 8 105 12 6 4 26 48 44 98 19 49 39 89
45 87 5 -2 25 -44 44 -93z m900 0 c19 -49 39 -92 45 -96 6 -4 52 -8 103 -8 50
0 94 -4 98 -9 3 -6 -31 -40 -75 -77 -53 -45 -79 -73 -76 -83 30 -104 48 -182
43 -188 -4 -3 -44 18 -89 47 -46 29 -87 53 -93 53 -5 0 -47 -24 -93 -53 -46
-29 -86 -50 -89 -46 -5 5 28 149 44 192 2 6 -32 40 -76 75 -44 35 -79 69 -77
74 1 6 45 12 97 15 52 3 99 8 105 12 6 4 26 48 44 98 19 49 39 89 45 87 5 -2
25 -44 44 -93z m900 0 c19 -49 39 -92 45 -96 6 -4 52 -8 103 -8 50 0 94 -4 98
-9 3 -6 -31 -40 -75 -77 -53 -45 -79 -73 -76 -83 30 -104 48 -182 43 -188 -4
-3 -44 18 -89 47 -46 29 -87 53 -93 53 -5 0 -47 -24 -93 -53 -46 -29 -86 -50
-89 -46 -5 5 28 149 44 192 2 6 -32 40 -76 75 -44 35 -79 69 -77 74 1 6 45 12
97 15 52 3 99 8 105 12 6 4 26 48 44 98 19 49 39 89 45 87 5 -2 25 -44 44 -93z
m-6489 -729 l0 -75 -1350 0 -1350 0 0 75 0 75 1350 0 1350 0 0 -75z m6900 0
l0 -75 -1350 0 -1350 0 0 75 0 75 1350 0 1350 0 0 -75z m-5592 -2287 c28 -59
62 -452 62 -720 0 -122 -13 -148 -70 -148 l-30 0 -1 138 c0 75 -2 148 -4 162
-2 14 -6 117 -9 230 -3 113 -11 232 -17 264 -9 49 -8 61 6 82 20 31 46 28 63
-8z m270 0 c28 -59 62 -452 62 -720 0 -122 -13 -148 -70 -148 l-30 0 -1 138
c0 75 -2 148 -4 162 -2 14 -6 117 -9 230 -3 113 -11 232 -17 264 -9 49 -8 61
6 82 20 31 46 28 63 -8z m-1974 -44 c9 -8 16 -26 16 -38 0 -56 41 -57 370 -5
110 17 224 29 281 29 105 0 109 -2 109 -60 l0 -28 -132 -6 c-309 -16 -510 -41
-571 -73 l-30 -15 6 -76 c3 -43 11 -99 18 -126 l12 -49 76 6 c42 3 150 19 241
36 91 18 198 34 238 38 l73 6 -3 -34 c-3 -30 -8 -35 -50 -51 -26 -9 -147 -31
-270 -48 -129 -18 -238 -38 -258 -48 l-35 -17 -8 -125 c-4 -69 -9 -131 -12
-137 -3 -8 -23 -13 -50 -13 l-45 0 0 114 0 114 -31 7 c-46 10 -47 31 -4 75
l38 39 -6 68 c-3 37 -18 118 -31 178 -31 133 -34 229 -8 244 25 15 48 13 66
-5z m2383 -74 c158 -13 421 -13 503 1 57 9 66 8 77 -7 7 -10 13 -30 13 -45 0
-25 -5 -28 -50 -38 -28 -6 -109 -11 -179 -11 -71 0 -142 -3 -158 -6 l-30 -6
-18 -206 c-10 -114 -19 -255 -19 -314 l-1 -106 -35 -6 c-19 -3 -48 -6 -63 -6
l-29 0 6 63 c12 121 38 579 34 583 -3 2 -67 8 -142 12 -143 9 -156 13 -156 56
0 11 7 27 15 36 17 18 10 18 232 0z m817 -252 c3 -68 9 -198 13 -290 7 -183 3
-198 -47 -198 -63 0 -60 -16 -60 311 l0 299 43 0 44 0 7 -122z m1723 90 c29
-10 74 -39 100 -63 46 -41 48 -45 47 -94 0 -52 -16 -80 -59 -104 -13 -8 -80
-12 -190 -12 -151 0 -174 -2 -208 -20 -49 -25 -72 -63 -63 -100 10 -40 56 -82
107 -96 58 -16 174 7 312 62 87 34 103 38 115 25 12 -12 12 -17 -3 -39 -62
-95 -277 -170 -422 -147 -155 25 -223 95 -223 228 0 152 80 281 218 351 87 44
168 47 269 9z m-1507 -60 c15 -75 15 -76 32 -53 10 13 44 36 75 52 50 24 70
28 143 28 72 0 90 -3 117 -23 18 -12 37 -38 44 -57 l13 -34 37 34 c112 100
335 152 404 92 26 -22 26 -24 40 -252 8 -127 15 -249 15 -272 l0 -43 -54 0
-54 0 -5 233 c-2 127 -8 242 -12 255 -20 59 -198 -8 -260 -98 -45 -65 -76
-165 -82 -265 -7 -113 -13 -125 -61 -125 -61 0 -65 7 -52 86 14 86 15 228 1
280 -5 22 -15 58 -21 82 l-11 42 -42 -6 c-166 -24 -241 -133 -242 -352 l0
-113 -38 -11 c-56 -17 -72 -3 -71 58 1 27 2 156 4 287 2 233 3 239 24 247 11
5 26 8 31 6 6 -1 17 -37 25 -78z m-2436 31 c32 -25 32 -44 0 -144 -29 -89 -37
-223 -16 -262 43 -79 231 -69 359 19 24 16 46 40 49 53 9 36 9 129 0 248 -8
106 -8 107 13 107 75 0 92 -59 98 -347 5 -206 4 -223 -12 -229 -25 -10 -47 6
-70 52 l-21 40 -70 -33 c-102 -48 -211 -70 -280 -55 -123 25 -153 78 -161 285
-7 172 0 231 32 263 29 29 45 30 79 3z"/>
<path d="M5535 8155 c-123 -22 -275 -69 -275 -84 0 -4 34 -89 75 -189 41 -100
75 -187 75 -192 0 -5 18 -3 39 5 99 35 257 59 385 60 l129 0 68 -254 c37 -140
71 -267 74 -282 l6 -28 -148 2 c-129 2 -159 -1 -233 -22 -47 -13 -93 -24 -104
-25 -15 -1 -37 46 -123 264 -57 146 -106 266 -108 268 -11 11 -270 -134 -321
-180 l-21 -19 99 -276 c54 -152 100 -278 102 -280 2 -3 43 25 92 61 86 63 248
156 257 146 2 -3 37 -90 77 -195 40 -104 75 -192 76 -194 2 -2 46 6 99 19 81
20 110 22 200 16 57 -3 118 -9 135 -12 18 -4 30 -2 30 4 0 6 -22 94 -50 195
-27 102 -50 191 -50 199 0 21 77 8 227 -38 65 -20 128 -39 140 -41 26 -6 25
-3 79 -243 21 -91 38 -166 39 -168 2 -1 31 -7 66 -13 62 -10 215 -4 235 9 7 5
5 75 -5 205 l-14 198 -89 -7 c-86 -6 -261 9 -288 26 -10 6 -119 457 -120 497
0 8 15 6 47 -8 73 -31 161 -49 243 -48 72 0 155 11 166 21 5 6 -23 379 -30
385 -2 2 -45 -1 -96 -7 -115 -13 -221 0 -337 40 -46 16 -83 27 -83 25 0 -2 16
-73 35 -157 20 -84 40 -170 44 -190 l9 -37 -37 15 c-143 62 -285 115 -331 124
-29 6 -55 12 -58 14 -2 3 -26 89 -53 192 -26 103 -51 194 -53 201 -7 17 -223
16 -321 -2z"/>
<path d="M7138 7684 c-9 -13 -198 -107 -250 -123 l-36 -12 5 -57 c2 -31 10
-135 17 -229 7 -95 16 -176 20 -180 7 -7 216 58 244 76 9 6 12 74 10 272 -2
145 -6 259 -10 253z"/>
<path d="M8260 4192 c-77 -26 -136 -58 -154 -84 -14 -20 -14 -23 0 -31 9 -5
82 -7 163 -5 186 5 247 31 195 83 -49 48 -126 62 -204 37z"/>
</g>
</svg>